<svg width="128" height="128" version="1.1" xmlns="http://www.w3.org/2000/svg" desc="Created with imagetracer.js version 0.2.1" ><path fill="rgb(0,0,0)" stroke="rgb(0,0,0)" stroke-width="1" opacity="1" d="M 49 9 L 70.5 9 L 71 9.5 L 71 15 L 49.5 15 L 49 14.5 L 49 9 Z " /><path fill="rgb(0,0,0)" stroke="rgb(0,0,0)" stroke-width="1" opacity="1" d="M 41 17 L 47 17 L 47 31 L 24.5 31 L 23 32.5 L 23 47.5 L 24.5 49 L 31 49 L 31 55 L 17 55 L 17 25 L 39.5 25 L 41 23.5 L 41 17 Z " /><path fill="rgb(0,0,0)" stroke="rgb(0,0,0)" stroke-width="1" opacity="1" d="M 73 17 L 79 17 L 79 23.5 L 80.5 25 L 103 25 L 103 47.5 L 104.5 49 L 111 49 L 111 55 L 97 55 L 97 32.5 L 95.5 31 L 73 31 L 73 17 Z " /><path fill="rgb(0,0,0)" stroke="rgb(0,0,0)" stroke-width="1" opacity="1" d="M 33 57 L 38.5 57 L 39 57.5 L 39 79 L 33.5 79 L 33 78.5 L 33 57 Z " /><path fill="rgb(0,0,0)" stroke="rgb(0,0,0)" stroke-width="1" opacity="1" d="M 113 57 L 118.5 57 L 119 57.5 L 119 79 L 113.5 79 L 113 78.5 L 113 57 Z " /><path fill="rgb(0,0,0)" stroke="rgb(0,0,0)" stroke-width="1" opacity="1" d="M 17 81 L 31 81 L 31 87 Q 24.9 85.3 23 88.5 L 23 103.5 L 24.5 105 L 39.5 105 L 41 103.5 L 41 97 L 47 97 L 47 111 L 17 111 L 17 81 Z " /><path fill="rgb(0,0,0)" stroke="rgb(0,0,0)" stroke-width="1" opacity="1" d="M 97 81 L 111 81 L 111 87 L 104.5 87 L 103 88.5 L 103 111 L 73 111 L 73 97 L 79 97 Q 77.3 103.1 80.5 105 L 95.5 105 L 97 103.5 L 97 81 Z " /><path fill="rgb(0,0,0)" stroke="rgb(0,0,0)" stroke-width="1" opacity="1" d="M 49 89 L 70.5 89 L 71 89.5 L 71 95 L 49.5 95 L 49 94.5 L 49 89 Z " /><path fill="rgb(0,0,0)" stroke="rgb(0,0,0)" stroke-width="1" opacity="0" d="M 0 0 L 38.5 0 L 39 0.5 L 39 7 L 31 7 L 31 14.5 L 30.5 15 L 7 15 L 7 63.5 L 8.5 65 L 23 65 L 23 71 L 7.5 71 L 7 71.5 L 7 119.5 L 8.5 121 L 57 121 L 57 105 L 63 105 L 63 119.5 L 64.5 121 L 113 121 L 113 97 L 121 97 L 121 89 L 128 89 L 128 127.5 L 127.5 128 L 0 128 L 0 0 Z " /><path fill="rgb(0,0,0)" stroke="rgb(0,0,0)" stroke-width="1" opacity="0" d="M 81 0 L 128 0 L 128 47 L 121 47 L 121 39 L 113 39 L 113 15 L 89 15 L 89 7 L 81 7 L 81 0 Z " /><path fill="rgb(173,253,115)" stroke="rgb(173,253,115)" stroke-width="1" opacity="1" d="M 48 16 L 72 16 L 72 32 L 96 32 L 96 56 L 80 56 L 80 48.5 L 79.5 48 L 48 48 L 48 56 L 32 56 L 32 48 L 24 48 L 24 32 L 48 32 L 48 16 Z " /><path fill="rgb(134,235,61)" stroke="rgb(134,235,61)" stroke-width="1" opacity="1" d="M 40.5 56 L 41 63.5 L 40 63.5 L 40.5 56 Z " /><path fill="rgb(134,235,61)" stroke="rgb(134,235,61)" stroke-width="1" opacity="1" d="M 96.5 56 L 104 56.5 L 96.5 57 L 96.5 56 Z " /><path fill="rgb(146,254,66)" stroke="rgb(146,254,66)" stroke-width="1" opacity="1" d="M 48 48 L 79.5 48 L 80 48.5 L 80 56 L 95.5 56 L 96.5 57 L 104 57 L 104 64 L 88 64 L 88 71.5 L 87.5 72 L 48 72 L 48 64 L 41 64 L 41 56 L 48 56 L 48 48 Z " /><path fill="rgb(252,252,252)" stroke="rgb(252,252,252)" stroke-width="1" opacity="0.8980392156862745" d="M 39 0 L 80.5 0 L 81 0.5 L 81 7 L 89 7 L 89 15 L 113 15 L 113 39 L 121 39 L 121 47 L 127.5 47 L 128 47.5 L 128 89 L 121 89 L 121 97 L 113 97 L 113 121 L 64.5 121 L 63 119.5 L 63 105 L 57 105 L 57 120.5 L 56.5 121 L 8.5 121 L 7 119.5 L 7 71 L 23 71 L 23 65 L 8.5 65 L 7 63.5 L 7 15 L 31 15 L 31 7 L 39 7 L 39 0 Z M 48 8 L 48 16 L 40 16 L 40 24 L 16 24 L 16 56 L 32 56 L 32 80 L 17 80 L 16 81 L 16 112 L 48 112 L 48 96 L 72 96 L 72 112 L 104 112 L 104 88 L 112 88 L 112 80 L 120 80 L 120 56 L 112 56 L 112 48 L 105 48 L 104 48 L 104 24 L 81 24 L 80 24 L 80 16 L 72 16 L 72 8 L 48 8 Z " /><path fill="rgb(112,252,12)" stroke="rgb(112,252,12)" stroke-width="1" opacity="1" d="M 104 57 L 110.5 57 L 111 57.5 L 111 79 L 96.5 79 L 95 80.5 L 95 103 L 81 103 L 81 96.5 L 79.5 95 L 73 95 L 73 87.5 L 72.5 87 L 48.5 87 Q 45.3 88.9 47 95 L 40.5 95 L 39 96.5 L 39 103 L 25 103 L 25 89 L 31.5 89 L 33 87.5 L 33 81 Q 39.1 82.8 41 79.5 L 41 64 L 48 64 L 48 71.5 L 48.5 72 L 88 72 L 88 64 L 104 64 L 104 57 Z " /><path fill="rgb(16,20,13)" stroke="rgb(16,20,13)" stroke-width="1" opacity="1" d="M 48 8 L 72 8 L 72 16 L 80 16 L 80 23.5 L 80.5 24 L 104 24 L 104 47.5 L 104.5 48 L 112 48 L 112 56 L 120 56 L 120 80 L 112 80 L 112 88 L 104 88 L 104 112 L 72 112 L 72 96 L 48 96 L 48 112 L 16 112 L 16 80.5 L 16.5 80 L 32 80 L 32 56 L 16 56 L 16 24 L 40 24 L 40 16 L 48 16 L 48 8 Z M 49 9 L 49 15 L 50 15 L 71 15 L 71 10 L 71 9 L 49 9 Z M 48 16 L 48 32 L 24 32 L 24 48 L 32 48 L 32 56 L 40 56 L 40 80 L 32 80 L 32 88 L 24 88 L 24 104 L 40 104 L 40 96 L 48 96 L 48 88 L 72 88 L 72 96 L 80 96 L 80 104 L 96 104 L 96 80 L 112 80 L 112 56 L 96 56 L 96 32 L 72 32 L 72 16 L 48 16 Z M 41 17 L 41 24 L 40 25 L 17 25 L 17 55 L 31 55 L 31 49 L 25 49 L 23 48 L 23 33 L 25 31 L 47 31 L 47 17 L 41 17 Z M 73 17 L 73 31 L 96 31 L 97 33 L 97 55 L 111 55 L 111 49 L 105 49 L 103 48 L 103 25 L 81 25 L 79 24 L 79 17 L 73 17 Z M 33 57 L 33 79 L 34 79 L 39 79 L 39 58 L 39 57 L 33 57 Z M 113 57 L 113 79 L 114 79 L 119 79 L 119 58 L 119 57 L 113 57 Z M 17 81 L 17 111 L 47 111 L 47 97 L 41 97 L 41 104 L 40 105 L 25 105 L 23 104 L 23 89 Q 25 85 31 87 L 31 81 L 17 81 Z M 97 81 L 97 104 L 96 105 L 81 105 Q 77 103 79 97 L 73 97 L 73 111 L 103 111 L 103 89 L 105 87 L 111 87 L 111 81 L 97 81 Z M 49 89 L 49 95 L 50 95 L 71 95 L 71 90 L 71 89 L 49 89 Z " /><path fill="rgb(103,230,12)" stroke="rgb(103,230,12)" stroke-width="1" opacity="1" d="M 104.5 56 L 111.5 56 L 112 56.5 L 112 80 L 96 80 L 96 104 L 80 104 L 80 96 L 72 96 L 72 88 L 48 88 L 48 96 L 40 96 L 40 104 L 24 104 L 24 88 L 32 88 L 32 80 L 40 80 L 40 64.5 L 41 64.5 L 41 79.5 L 39.5 81 Q 29.8 77.8 33 87.5 L 31.5 89 L 25 89 L 25 103 L 39 103 L 39 96.5 L 40.5 95 Q 50.3 98.3 47 88.5 L 48.5 87 L 73 87 L 73 95 L 79.5 95 Q 82.8 96.9 81 103 L 95 103 L 95 80.5 L 96.5 79 L 111 79 L 111 57.5 Q 110.8 56.3 104.5 57 L 104.5 56 Z " /></svg>